<svg width="26" height="27" viewBox="0 0 26 27" fill="none" xmlns="http://www.w3.org/2000/svg">
<path d="M3.25 8H20.75V5.5H3.25V8ZM3.25 25.5C2.5625 25.5 1.97396 25.2552 1.48438 24.7656C0.994792 24.276 0.75 23.6875 0.75 23V5.5C0.75 4.8125 0.994792 4.22396 1.48438 3.73438C1.97396 3.24479 2.5625 3 3.25 3H4.5V0.5H7V3H17V0.5H19.5V3H20.75C21.4375 3 22.026 3.24479 22.5156 3.73438C23.0052 4.22396 23.25 4.8125 23.25 5.5V12.5938C22.8542 12.4062 22.4479 12.25 22.0312 12.125C21.6146 12 21.1875 11.9062 20.75 11.8438V10.5H3.25V23H11.125C11.2708 23.4583 11.4427 23.8958 11.6406 24.3125C11.8385 24.7292 12.0729 25.125 12.3438 25.5H3.25ZM19.5 26.75C17.7708 26.75 16.2969 26.1406 15.0781 24.9219C13.8594 23.7031 13.25 22.2292 13.25 20.5C13.25 18.7708 13.8594 17.2969 15.0781 16.0781C16.2969 14.8594 17.7708 14.25 19.5 14.25C21.2292 14.25 22.7031 14.8594 23.9219 16.0781C25.1406 17.2969 25.75 18.7708 25.75 20.5C25.75 22.2292 25.1406 23.7031 23.9219 24.9219C22.7031 26.1406 21.2292 26.75 19.5 26.75ZM21.5938 23.4688L22.4688 22.5938L20.125 20.25V16.75H18.875V20.75L21.5938 23.4688Z" fill="black"/>
</svg>
