<svg width="24" height="25" viewBox="0 0 24 25" fill="none" xmlns="http://www.w3.org/2000/svg">
<path d="M0.75 24.25V6.75H8.25V4.25L12 0.5L15.75 4.25V11.75H23.25V24.25H0.75ZM3.25 21.75H5.75V19.25H3.25V21.75ZM3.25 16.75H5.75V14.25H3.25V16.75ZM3.25 11.75H5.75V9.25H3.25V11.75ZM10.75 21.75H13.25V19.25H10.75V21.75ZM10.75 16.75H13.25V14.25H10.75V16.75ZM10.75 11.75H13.25V9.25H10.75V11.75ZM10.75 6.75H13.25V4.25H10.75V6.75ZM18.25 21.75H20.75V19.25H18.25V21.75ZM18.25 16.75H20.75V14.25H18.25V16.75Z" fill="black"/>
</svg>
