<svg width="26" height="26" viewBox="0 0 26 26" fill="none" xmlns="http://www.w3.org/2000/svg">
<path d="M18 25.5V22.6875C16.8333 22.3125 15.8542 21.6458 15.0625 20.6875C14.2708 19.7292 13.8125 18.625 13.6875 17.375H16.1875C16.3542 18.2708 16.776 19.0156 17.4531 19.6094C18.1302 20.2031 18.9375 20.5 19.875 20.5H23.625C24.1458 20.5 24.5885 20.6823 24.9531 21.0469C25.3177 21.4115 25.5 21.8542 25.5 22.375V25.5H18ZM21.75 19.25C21.0625 19.25 20.474 19.0052 19.9844 18.5156C19.4948 18.026 19.25 17.4375 19.25 16.75C19.25 16.0625 19.4948 15.474 19.9844 14.9844C20.474 14.4948 21.0625 14.25 21.75 14.25C22.4375 14.25 23.026 14.4948 23.5156 14.9844C24.0052 15.474 24.25 16.0625 24.25 16.75C24.25 17.4375 24.0052 18.026 23.5156 18.5156C23.026 19.0052 22.4375 19.25 21.75 19.25ZM9.25 15.5C9.25 12.375 10.3438 9.71875 12.5312 7.53125C14.7188 5.34375 17.375 4.25 20.5 4.25V6.75C18.0625 6.75 15.9948 7.59896 14.2969 9.29688C12.599 10.9948 11.75 13.0625 11.75 15.5H9.25ZM14.25 15.5C14.25 13.7708 14.8594 12.2969 16.0781 11.0781C17.2969 9.85938 18.7708 9.25 20.5 9.25V11.75C19.4583 11.75 18.5729 12.1146 17.8438 12.8438C17.1146 13.5729 16.75 14.4583 16.75 15.5H14.25ZM0.5 11.75V8.625C0.5 8.10417 0.682292 7.66146 1.04688 7.29688C1.41146 6.93229 1.85417 6.75 2.375 6.75H6.125C7.0625 6.75 7.86979 6.45312 8.54688 5.85938C9.22396 5.26562 9.64583 4.52083 9.8125 3.625H12.3125C12.1875 4.875 11.7292 5.97917 10.9375 6.9375C10.1458 7.89583 9.16667 8.5625 8 8.9375V11.75H0.5ZM4.25 5.5C3.5625 5.5 2.97396 5.25521 2.48438 4.76562C1.99479 4.27604 1.75 3.6875 1.75 3C1.75 2.3125 1.99479 1.72396 2.48438 1.23438C2.97396 0.744792 3.5625 0.5 4.25 0.5C4.9375 0.5 5.52604 0.744792 6.01562 1.23438C6.50521 1.72396 6.75 2.3125 6.75 3C6.75 3.6875 6.50521 4.27604 6.01562 4.76562C5.52604 5.25521 4.9375 5.5 4.25 5.5Z" fill="black"/>
</svg>
