<svg width="20" height="26" viewBox="0 0 20 26" fill="none" xmlns="http://www.w3.org/2000/svg">
<path d="M10 15.5C10.6875 15.5 11.276 15.2552 11.7656 14.7656C12.2552 14.276 12.5 13.6875 12.5 13C12.5 12.3125 12.2552 11.724 11.7656 11.2344C11.276 10.7448 10.6875 10.5 10 10.5C9.3125 10.5 8.72396 10.7448 8.23438 11.2344C7.74479 11.724 7.5 12.3125 7.5 13C7.5 13.6875 7.74479 14.276 8.23438 14.7656C8.72396 15.2552 9.3125 15.5 10 15.5ZM5 20.5H15V19.7812C15 19.2812 14.8646 18.8229 14.5938 18.4062C14.3229 17.9896 13.9479 17.6771 13.4688 17.4688C12.9271 17.2396 12.3698 17.0625 11.7969 16.9375C11.224 16.8125 10.625 16.75 10 16.75C9.375 16.75 8.77604 16.8125 8.20312 16.9375C7.63021 17.0625 7.07292 17.2396 6.53125 17.4688C6.05208 17.6771 5.67708 17.9896 5.40625 18.4062C5.13542 18.8229 5 19.2812 5 19.7812V20.5ZM17.5 25.5H2.5C1.8125 25.5 1.22396 25.2552 0.734375 24.7656C0.244792 24.276 0 23.6875 0 23V3C0 2.3125 0.244792 1.72396 0.734375 1.23438C1.22396 0.744792 1.8125 0.5 2.5 0.5H12.5L20 8V23C20 23.6875 19.7552 24.276 19.2656 24.7656C18.776 25.2552 18.1875 25.5 17.5 25.5ZM17.5 23V9.0625L11.4375 3H2.5V23H17.5Z" fill="black"/>
</svg>
