<svg width="26" height="20" viewBox="0 0 26 20" fill="none" xmlns="http://www.w3.org/2000/svg">
<path d="M20.5 11.25V8.75H25.5V11.25H20.5ZM22 20L18 17L19.5 15L23.5 18L22 20ZM19.5 5L18 3L22 0L23.5 2L19.5 5ZM4.25 18.75V13.75H3C2.3125 13.75 1.72396 13.5052 1.23438 13.0156C0.744792 12.526 0.5 11.9375 0.5 11.25V8.75C0.5 8.0625 0.744792 7.47396 1.23438 6.98438C1.72396 6.49479 2.3125 6.25 3 6.25H8L14.25 2.5V17.5L8 13.75H6.75V18.75H4.25ZM11.75 13.0625V6.9375L8.6875 8.75H3V11.25H8.6875L11.75 13.0625ZM15.5 14.1875V5.8125C16.0625 6.3125 16.5156 6.92188 16.8594 7.64062C17.2031 8.35938 17.375 9.14583 17.375 10C17.375 10.8542 17.2031 11.6406 16.8594 12.3594C16.5156 13.0781 16.0625 13.6875 15.5 14.1875Z" fill="black"/>
</svg>
