<svg width="27" height="23" viewBox="0 0 27 23" fill="none" xmlns="http://www.w3.org/2000/svg">
<path d="M3 17.5V7.5V7.90625V2.5V17.5ZM3 5H23V2.5H3V5ZM12.4688 20H3C2.3125 20 1.72396 19.7552 1.23438 19.2656C0.744792 18.776 0.5 18.1875 0.5 17.5V2.5C0.5 1.8125 0.744792 1.22396 1.23438 0.734375C1.72396 0.244792 2.3125 0 3 0H23C23.6875 0 24.276 0.244792 24.7656 0.734375C25.2552 1.22396 25.5 1.8125 25.5 2.5V9.15625C24.7708 8.63542 23.974 8.22917 23.1094 7.9375C22.2448 7.64583 21.3333 7.5 20.375 7.5C19.1875 7.5 18.0677 7.72396 17.0156 8.17188C15.9635 8.61979 15.0417 9.22917 14.25 10H3V17.5H11.7188C11.7812 17.9375 11.875 18.3646 12 18.7812C12.125 19.1979 12.2812 19.6042 12.4688 20ZM19.125 22.5L18.75 20.625C18.5 20.5208 18.2656 20.4115 18.0469 20.2969C17.8281 20.1823 17.6042 20.0417 17.375 19.875L15.5625 20.4375L14.3125 18.3125L15.75 17.0625C15.7083 16.7917 15.6875 16.5208 15.6875 16.25C15.6875 15.9792 15.7083 15.7083 15.75 15.4375L14.3125 14.1875L15.5625 12.0625L17.375 12.625C17.6042 12.4583 17.8281 12.3177 18.0469 12.2031C18.2656 12.0885 18.5 11.9792 18.75 11.875L19.125 10H21.625L22 11.875C22.25 11.9792 22.4844 12.0885 22.7031 12.2031C22.9219 12.3177 23.1458 12.4583 23.375 12.625L25.1875 12.0625L26.4375 14.1875L25 15.4375C25.0417 15.7083 25.0625 15.9792 25.0625 16.25C25.0625 16.5208 25.0417 16.7917 25 17.0625L26.4375 18.3125L25.1875 20.4375L23.375 19.875C23.1458 20.0417 22.9219 20.1823 22.7031 20.2969C22.4844 20.4115 22.25 20.5208 22 20.625L21.625 22.5H19.125ZM20.375 18.75C21.0625 18.75 21.651 18.5052 22.1406 18.0156C22.6302 17.526 22.875 16.9375 22.875 16.25C22.875 15.5625 22.6302 14.974 22.1406 14.4844C21.651 13.9948 21.0625 13.75 20.375 13.75C19.6875 13.75 19.099 13.9948 18.6094 14.4844C18.1198 14.974 17.875 15.5625 17.875 16.25C17.875 16.9375 18.1198 17.526 18.6094 18.0156C19.099 18.5052 19.6875 18.75 20.375 18.75Z" fill="black"/>
</svg>
