<svg width="26" height="22" viewBox="0 0 26 22" fill="none" xmlns="http://www.w3.org/2000/svg">
<path d="M13 20V17.5H16.75L22.375 10L16.75 2.5H3V8.75H0.5V2.5C0.5 1.8125 0.744792 1.22396 1.23438 0.734375C1.72396 0.244792 2.3125 0 3 0H16.75C17.1458 0 17.5208 0.0885417 17.875 0.265625C18.2292 0.442708 18.5208 0.6875 18.75 1L25.5 10L18.75 19C18.5208 19.3125 18.2292 19.5573 17.875 19.7344C17.5208 19.9115 17.1458 20 16.75 20H13ZM4.25 21.25V17.5H0.5V15H4.25V11.25H6.75V15H10.5V17.5H6.75V21.25H4.25Z" fill="black"/>
</svg>
